<mxfile host="app.diagrams.net" modified="2022-06-11T17:14:16.963Z" agent="5.0 (Windows NT 10.0; Win64; x64) AppleWebKit/537.36 (KHTML, like Gecko) Chrome/102.0.5005.63 Safari/537.36 Edg/102.0.1245.39" etag="qExoh-E2wlr7dtMd750e" version="17.4.2" type="github">
  <diagram id="C5RBs43oDa-KdzZeNtuy" name="Page-1">
    <mxGraphModel dx="2545" dy="955" grid="1" gridSize="10" guides="1" tooltips="1" connect="1" arrows="1" fold="1" page="1" pageScale="1" pageWidth="827" pageHeight="1169" math="0" shadow="0">
      <root>
        <mxCell id="WIyWlLk6GJQsqaUBKTNV-0" />
        <mxCell id="WIyWlLk6GJQsqaUBKTNV-1" parent="WIyWlLk6GJQsqaUBKTNV-0" />
        <mxCell id="qIoHM2bMdAqv-RKR4ZxZ-0" value="Se pulsa botón &quot;Inicio&quot;" style="rounded=1;whiteSpace=wrap;html=1;" vertex="1" parent="WIyWlLk6GJQsqaUBKTNV-1">
          <mxGeometry x="354" y="30" width="120" height="60" as="geometry" />
        </mxCell>
        <mxCell id="qIoHM2bMdAqv-RKR4ZxZ-1" value="" style="endArrow=classic;html=1;rounded=0;exitX=0.5;exitY=1;exitDx=0;exitDy=0;" edge="1" parent="WIyWlLk6GJQsqaUBKTNV-1" source="qIoHM2bMdAqv-RKR4ZxZ-0">
          <mxGeometry width="50" height="50" relative="1" as="geometry">
            <mxPoint x="390" y="600" as="sourcePoint" />
            <mxPoint x="414" y="130" as="targetPoint" />
          </mxGeometry>
        </mxCell>
        <mxCell id="qIoHM2bMdAqv-RKR4ZxZ-13" value="" style="edgeStyle=orthogonalEdgeStyle;rounded=0;orthogonalLoop=1;jettySize=auto;html=1;" edge="1" parent="WIyWlLk6GJQsqaUBKTNV-1" source="qIoHM2bMdAqv-RKR4ZxZ-2" target="qIoHM2bMdAqv-RKR4ZxZ-12">
          <mxGeometry relative="1" as="geometry" />
        </mxCell>
        <mxCell id="qIoHM2bMdAqv-RKR4ZxZ-2" value="-Animación anversos barajar&lt;br&gt;- Añadir crédito Jugador(500)&lt;br&gt;- Bloquear botón inicio&lt;br&gt;- Mostrar botón &quot;Nueva Apuesta&quot;&lt;br&gt;" style="rounded=0;whiteSpace=wrap;html=1;" vertex="1" parent="WIyWlLk6GJQsqaUBKTNV-1">
          <mxGeometry x="90" y="210" width="180" height="100" as="geometry" />
        </mxCell>
        <mxCell id="qIoHM2bMdAqv-RKR4ZxZ-3" value="¿Primera partida?" style="rhombus;whiteSpace=wrap;html=1;" vertex="1" parent="WIyWlLk6GJQsqaUBKTNV-1">
          <mxGeometry x="341" y="130" width="146" height="80" as="geometry" />
        </mxCell>
        <mxCell id="qIoHM2bMdAqv-RKR4ZxZ-4" value="Si" style="endArrow=classic;html=1;rounded=0;entryX=0.5;entryY=0;entryDx=0;entryDy=0;" edge="1" parent="WIyWlLk6GJQsqaUBKTNV-1" target="qIoHM2bMdAqv-RKR4ZxZ-2">
          <mxGeometry x="-1" y="256" relative="1" as="geometry">
            <mxPoint x="340" y="170" as="sourcePoint" />
            <mxPoint x="240" y="170" as="targetPoint" />
            <Array as="points">
              <mxPoint x="180" y="170" />
            </Array>
            <mxPoint x="200" y="-96" as="offset" />
          </mxGeometry>
        </mxCell>
        <mxCell id="qIoHM2bMdAqv-RKR4ZxZ-6" value="" style="endArrow=classic;html=1;rounded=0;entryX=0.5;entryY=0;entryDx=0;entryDy=0;" edge="1" parent="WIyWlLk6GJQsqaUBKTNV-1" target="qIoHM2bMdAqv-RKR4ZxZ-8">
          <mxGeometry relative="1" as="geometry">
            <mxPoint x="487" y="169.71" as="sourcePoint" />
            <mxPoint x="587" y="169.71" as="targetPoint" />
            <Array as="points">
              <mxPoint x="650" y="170" />
            </Array>
          </mxGeometry>
        </mxCell>
        <mxCell id="qIoHM2bMdAqv-RKR4ZxZ-7" value="No" style="edgeLabel;resizable=0;html=1;align=center;verticalAlign=middle;" connectable="0" vertex="1" parent="qIoHM2bMdAqv-RKR4ZxZ-6">
          <mxGeometry relative="1" as="geometry">
            <mxPoint x="-19" y="-10" as="offset" />
          </mxGeometry>
        </mxCell>
        <mxCell id="qIoHM2bMdAqv-RKR4ZxZ-15" style="edgeStyle=orthogonalEdgeStyle;rounded=0;orthogonalLoop=1;jettySize=auto;html=1;exitX=0.5;exitY=1;exitDx=0;exitDy=0;entryX=0.5;entryY=0;entryDx=0;entryDy=0;" edge="1" parent="WIyWlLk6GJQsqaUBKTNV-1" source="qIoHM2bMdAqv-RKR4ZxZ-8" target="qIoHM2bMdAqv-RKR4ZxZ-14">
          <mxGeometry relative="1" as="geometry" />
        </mxCell>
        <mxCell id="qIoHM2bMdAqv-RKR4ZxZ-8" value="- Se barajan cartas (animación anversos)&lt;br&gt;" style="rounded=0;whiteSpace=wrap;html=1;" vertex="1" parent="WIyWlLk6GJQsqaUBKTNV-1">
          <mxGeometry x="590" y="210" width="120" height="60" as="geometry" />
        </mxCell>
        <mxCell id="qIoHM2bMdAqv-RKR4ZxZ-25" value="" style="edgeStyle=orthogonalEdgeStyle;rounded=0;orthogonalLoop=1;jettySize=auto;html=1;fontSize=12;" edge="1" parent="WIyWlLk6GJQsqaUBKTNV-1" source="qIoHM2bMdAqv-RKR4ZxZ-12" target="qIoHM2bMdAqv-RKR4ZxZ-24">
          <mxGeometry relative="1" as="geometry" />
        </mxCell>
        <mxCell id="qIoHM2bMdAqv-RKR4ZxZ-12" value="- Termina animación&lt;br&gt;- Se reparten 2 cartas (Jugador Mostradas,&lt;br&gt;Banca anverso)" style="whiteSpace=wrap;html=1;rounded=0;" vertex="1" parent="WIyWlLk6GJQsqaUBKTNV-1">
          <mxGeometry x="120" y="410" width="120" height="60" as="geometry" />
        </mxCell>
        <mxCell id="qIoHM2bMdAqv-RKR4ZxZ-20" value="" style="edgeStyle=orthogonalEdgeStyle;rounded=0;orthogonalLoop=1;jettySize=auto;html=1;fontSize=7;" edge="1" parent="WIyWlLk6GJQsqaUBKTNV-1" source="qIoHM2bMdAqv-RKR4ZxZ-14" target="qIoHM2bMdAqv-RKR4ZxZ-19">
          <mxGeometry relative="1" as="geometry" />
        </mxCell>
        <mxCell id="qIoHM2bMdAqv-RKR4ZxZ-14" value="&lt;font style=&quot;font-size: 7px&quot;&gt;Jugador añade apuesta?&lt;br&gt;Pulsa boton &quot;Nueva Apuesta&quot;&lt;/font&gt;" style="rhombus;whiteSpace=wrap;html=1;" vertex="1" parent="WIyWlLk6GJQsqaUBKTNV-1">
          <mxGeometry x="575" y="300" width="150" height="80" as="geometry" />
        </mxCell>
        <mxCell id="qIoHM2bMdAqv-RKR4ZxZ-21" style="edgeStyle=orthogonalEdgeStyle;rounded=0;orthogonalLoop=1;jettySize=auto;html=1;fontSize=7;" edge="1" parent="WIyWlLk6GJQsqaUBKTNV-1" source="qIoHM2bMdAqv-RKR4ZxZ-19">
          <mxGeometry relative="1" as="geometry">
            <mxPoint x="180" y="410" as="targetPoint" />
          </mxGeometry>
        </mxCell>
        <mxCell id="qIoHM2bMdAqv-RKR4ZxZ-19" value="Se resta crédito de la apuesta" style="whiteSpace=wrap;html=1;" vertex="1" parent="WIyWlLk6GJQsqaUBKTNV-1">
          <mxGeometry x="354" y="310" width="120" height="60" as="geometry" />
        </mxCell>
        <mxCell id="qIoHM2bMdAqv-RKR4ZxZ-23" value="&lt;font style=&quot;font-size: 12px&quot;&gt;Si&lt;/font&gt;" style="text;html=1;strokeColor=none;fillColor=none;align=center;verticalAlign=middle;whiteSpace=wrap;rounded=0;fontSize=7;" vertex="1" parent="WIyWlLk6GJQsqaUBKTNV-1">
          <mxGeometry x="240" y="150" width="30" height="20" as="geometry" />
        </mxCell>
        <mxCell id="qIoHM2bMdAqv-RKR4ZxZ-27" value="" style="edgeStyle=orthogonalEdgeStyle;rounded=0;orthogonalLoop=1;jettySize=auto;html=1;fontSize=9;" edge="1" parent="WIyWlLk6GJQsqaUBKTNV-1" source="qIoHM2bMdAqv-RKR4ZxZ-24" target="qIoHM2bMdAqv-RKR4ZxZ-26">
          <mxGeometry relative="1" as="geometry" />
        </mxCell>
        <mxCell id="qIoHM2bMdAqv-RKR4ZxZ-111" style="edgeStyle=orthogonalEdgeStyle;rounded=0;orthogonalLoop=1;jettySize=auto;html=1;exitX=0;exitY=0.5;exitDx=0;exitDy=0;fontSize=10;" edge="1" parent="WIyWlLk6GJQsqaUBKTNV-1" source="qIoHM2bMdAqv-RKR4ZxZ-24" target="qIoHM2bMdAqv-RKR4ZxZ-103">
          <mxGeometry relative="1" as="geometry" />
        </mxCell>
        <mxCell id="qIoHM2bMdAqv-RKR4ZxZ-24" value="&lt;font style=&quot;font-size: 9px&quot;&gt;Suma de cartas Jugador &amp;gt;21?&lt;/font&gt;" style="rhombus;whiteSpace=wrap;html=1;rounded=0;" vertex="1" parent="WIyWlLk6GJQsqaUBKTNV-1">
          <mxGeometry x="105" y="540" width="150" height="70" as="geometry" />
        </mxCell>
        <mxCell id="qIoHM2bMdAqv-RKR4ZxZ-30" value="" style="edgeStyle=orthogonalEdgeStyle;rounded=0;orthogonalLoop=1;jettySize=auto;html=1;fontSize=9;" edge="1" parent="WIyWlLk6GJQsqaUBKTNV-1" source="qIoHM2bMdAqv-RKR4ZxZ-26" target="qIoHM2bMdAqv-RKR4ZxZ-29">
          <mxGeometry relative="1" as="geometry" />
        </mxCell>
        <mxCell id="qIoHM2bMdAqv-RKR4ZxZ-82" style="edgeStyle=orthogonalEdgeStyle;rounded=0;orthogonalLoop=1;jettySize=auto;html=1;exitX=0.5;exitY=1;exitDx=0;exitDy=0;entryX=0.5;entryY=1;entryDx=0;entryDy=0;fontSize=10;" edge="1" parent="WIyWlLk6GJQsqaUBKTNV-1" source="qIoHM2bMdAqv-RKR4ZxZ-26" target="qIoHM2bMdAqv-RKR4ZxZ-24">
          <mxGeometry relative="1" as="geometry">
            <Array as="points">
              <mxPoint x="440" y="680" />
              <mxPoint x="180" y="680" />
            </Array>
          </mxGeometry>
        </mxCell>
        <mxCell id="qIoHM2bMdAqv-RKR4ZxZ-26" value="Pide otra carta?" style="rhombus;whiteSpace=wrap;html=1;rounded=0;" vertex="1" parent="WIyWlLk6GJQsqaUBKTNV-1">
          <mxGeometry x="370" y="535" width="140" height="80" as="geometry" />
        </mxCell>
        <mxCell id="qIoHM2bMdAqv-RKR4ZxZ-35" style="edgeStyle=orthogonalEdgeStyle;rounded=0;orthogonalLoop=1;jettySize=auto;html=1;entryX=0.5;entryY=0;entryDx=0;entryDy=0;fontSize=9;" edge="1" parent="WIyWlLk6GJQsqaUBKTNV-1" source="qIoHM2bMdAqv-RKR4ZxZ-29" target="qIoHM2bMdAqv-RKR4ZxZ-34">
          <mxGeometry relative="1" as="geometry" />
        </mxCell>
        <mxCell id="qIoHM2bMdAqv-RKR4ZxZ-29" value="Se desvelan cartas de Banca" style="whiteSpace=wrap;html=1;rounded=0;" vertex="1" parent="WIyWlLk6GJQsqaUBKTNV-1">
          <mxGeometry x="630" y="640" width="120" height="60" as="geometry" />
        </mxCell>
        <mxCell id="qIoHM2bMdAqv-RKR4ZxZ-31" value="&lt;font style=&quot;font-size: 12px&quot;&gt;No&lt;/font&gt;" style="text;html=1;strokeColor=none;fillColor=none;align=center;verticalAlign=middle;whiteSpace=wrap;rounded=0;fontSize=7;" vertex="1" parent="WIyWlLk6GJQsqaUBKTNV-1">
          <mxGeometry x="290" y="550" width="30" height="20" as="geometry" />
        </mxCell>
        <mxCell id="qIoHM2bMdAqv-RKR4ZxZ-33" value="&lt;font style=&quot;font-size: 12px&quot;&gt;No&lt;/font&gt;" style="text;html=1;strokeColor=none;fillColor=none;align=center;verticalAlign=middle;whiteSpace=wrap;rounded=0;fontSize=7;" vertex="1" parent="WIyWlLk6GJQsqaUBKTNV-1">
          <mxGeometry x="580" y="550" width="30" height="20" as="geometry" />
        </mxCell>
        <mxCell id="qIoHM2bMdAqv-RKR4ZxZ-62" value="" style="edgeStyle=orthogonalEdgeStyle;rounded=0;orthogonalLoop=1;jettySize=auto;html=1;fontSize=10;" edge="1" parent="WIyWlLk6GJQsqaUBKTNV-1" source="qIoHM2bMdAqv-RKR4ZxZ-34" target="qIoHM2bMdAqv-RKR4ZxZ-61">
          <mxGeometry relative="1" as="geometry" />
        </mxCell>
        <mxCell id="qIoHM2bMdAqv-RKR4ZxZ-80" style="edgeStyle=orthogonalEdgeStyle;rounded=0;orthogonalLoop=1;jettySize=auto;html=1;exitX=0;exitY=0.5;exitDx=0;exitDy=0;entryX=0;entryY=0.5;entryDx=0;entryDy=0;fontSize=10;" edge="1" parent="WIyWlLk6GJQsqaUBKTNV-1" source="qIoHM2bMdAqv-RKR4ZxZ-34" target="qIoHM2bMdAqv-RKR4ZxZ-43">
          <mxGeometry relative="1" as="geometry">
            <Array as="points">
              <mxPoint x="440" y="795" />
              <mxPoint x="440" y="1170" />
            </Array>
          </mxGeometry>
        </mxCell>
        <mxCell id="qIoHM2bMdAqv-RKR4ZxZ-34" value="&lt;font style=&quot;font-size: 9px&quot;&gt;Suma de cartas Banca &amp;gt;21?&lt;/font&gt;" style="rhombus;whiteSpace=wrap;html=1;rounded=0;" vertex="1" parent="WIyWlLk6GJQsqaUBKTNV-1">
          <mxGeometry x="530" y="760" width="150" height="70" as="geometry" />
        </mxCell>
        <mxCell id="qIoHM2bMdAqv-RKR4ZxZ-44" style="edgeStyle=orthogonalEdgeStyle;rounded=0;orthogonalLoop=1;jettySize=auto;html=1;exitX=0;exitY=0.5;exitDx=0;exitDy=0;entryX=0.5;entryY=0;entryDx=0;entryDy=0;fontSize=10;" edge="1" parent="WIyWlLk6GJQsqaUBKTNV-1" source="qIoHM2bMdAqv-RKR4ZxZ-41" target="qIoHM2bMdAqv-RKR4ZxZ-43">
          <mxGeometry relative="1" as="geometry" />
        </mxCell>
        <mxCell id="qIoHM2bMdAqv-RKR4ZxZ-46" style="edgeStyle=orthogonalEdgeStyle;rounded=0;orthogonalLoop=1;jettySize=auto;html=1;entryX=0.5;entryY=0;entryDx=0;entryDy=0;fontSize=10;exitX=1;exitY=0.5;exitDx=0;exitDy=0;" edge="1" parent="WIyWlLk6GJQsqaUBKTNV-1" source="qIoHM2bMdAqv-RKR4ZxZ-41" target="qIoHM2bMdAqv-RKR4ZxZ-45">
          <mxGeometry relative="1" as="geometry" />
        </mxCell>
        <mxCell id="qIoHM2bMdAqv-RKR4ZxZ-41" value="&lt;p class=&quot;MsoNormal&quot; style=&quot;line-height: 1&quot;&gt;&lt;/p&gt;&lt;font style=&quot;font-size: 10px&quot;&gt;&lt;span&gt;∑&lt;/span&gt;&amp;nbsp;cartas jugador &amp;gt;&amp;nbsp;&lt;span&gt;∑&amp;nbsp;&lt;/span&gt;&lt;span&gt;cartas Banca?&lt;/span&gt;&lt;br&gt;&lt;/font&gt;" style="rhombus;whiteSpace=wrap;html=1;rounded=0;" vertex="1" parent="WIyWlLk6GJQsqaUBKTNV-1">
          <mxGeometry x="860" y="1020" width="153" height="80" as="geometry" />
        </mxCell>
        <mxCell id="qIoHM2bMdAqv-RKR4ZxZ-43" value="Jugador gana (apuesta*2)&lt;br&gt;- Activar botón &quot;Nueva apuesta&quot;" style="rounded=1;whiteSpace=wrap;html=1;fontSize=10;" vertex="1" parent="WIyWlLk6GJQsqaUBKTNV-1">
          <mxGeometry x="740" y="1140" width="140" height="60" as="geometry" />
        </mxCell>
        <mxCell id="qIoHM2bMdAqv-RKR4ZxZ-48" value="" style="edgeStyle=orthogonalEdgeStyle;rounded=0;orthogonalLoop=1;jettySize=auto;html=1;fontSize=10;entryX=0.5;entryY=0;entryDx=0;entryDy=0;" edge="1" parent="WIyWlLk6GJQsqaUBKTNV-1" source="qIoHM2bMdAqv-RKR4ZxZ-45">
          <mxGeometry relative="1" as="geometry">
            <mxPoint x="1067" y="1229" as="targetPoint" />
          </mxGeometry>
        </mxCell>
        <mxCell id="qIoHM2bMdAqv-RKR4ZxZ-45" value="Jugador Pierde&lt;br&gt;- Activar botón &quot;Nueva Apuesta" style="rounded=1;whiteSpace=wrap;html=1;fontSize=10;" vertex="1" parent="WIyWlLk6GJQsqaUBKTNV-1">
          <mxGeometry x="997" y="1140" width="140" height="60" as="geometry" />
        </mxCell>
        <mxCell id="qIoHM2bMdAqv-RKR4ZxZ-53" value="" style="edgeStyle=orthogonalEdgeStyle;rounded=0;orthogonalLoop=1;jettySize=auto;html=1;fontSize=10;" edge="1" parent="WIyWlLk6GJQsqaUBKTNV-1" source="qIoHM2bMdAqv-RKR4ZxZ-51">
          <mxGeometry relative="1" as="geometry">
            <mxPoint x="897" y="1265" as="targetPoint" />
          </mxGeometry>
        </mxCell>
        <mxCell id="qIoHM2bMdAqv-RKR4ZxZ-59" style="edgeStyle=orthogonalEdgeStyle;rounded=0;orthogonalLoop=1;jettySize=auto;html=1;entryX=-0.029;entryY=0.49;entryDx=0;entryDy=0;entryPerimeter=0;fontSize=10;" edge="1" parent="WIyWlLk6GJQsqaUBKTNV-1" source="qIoHM2bMdAqv-RKR4ZxZ-51" target="qIoHM2bMdAqv-RKR4ZxZ-58">
          <mxGeometry relative="1" as="geometry" />
        </mxCell>
        <mxCell id="qIoHM2bMdAqv-RKR4ZxZ-51" value="&lt;font size=&quot;1&quot;&gt;Crédito suficiente?&lt;/font&gt;" style="rhombus;whiteSpace=wrap;html=1;rounded=0;" vertex="1" parent="WIyWlLk6GJQsqaUBKTNV-1">
          <mxGeometry x="992" y="1230" width="150" height="70" as="geometry" />
        </mxCell>
        <mxCell id="qIoHM2bMdAqv-RKR4ZxZ-54" value="Nueva partida" style="rounded=1;whiteSpace=wrap;html=1;fontSize=10;" vertex="1" parent="WIyWlLk6GJQsqaUBKTNV-1">
          <mxGeometry x="775" y="1235" width="120" height="60" as="geometry" />
        </mxCell>
        <mxCell id="qIoHM2bMdAqv-RKR4ZxZ-55" value="&lt;font style=&quot;font-size: 12px&quot;&gt;Si&lt;/font&gt;" style="text;html=1;strokeColor=none;fillColor=none;align=center;verticalAlign=middle;whiteSpace=wrap;rounded=0;fontSize=7;" vertex="1" parent="WIyWlLk6GJQsqaUBKTNV-1">
          <mxGeometry x="820" y="1040" width="30" height="20" as="geometry" />
        </mxCell>
        <mxCell id="qIoHM2bMdAqv-RKR4ZxZ-56" value="&lt;font style=&quot;font-size: 12px&quot;&gt;Si&lt;/font&gt;" style="text;html=1;strokeColor=none;fillColor=none;align=center;verticalAlign=middle;whiteSpace=wrap;rounded=0;fontSize=7;" vertex="1" parent="WIyWlLk6GJQsqaUBKTNV-1">
          <mxGeometry x="940" y="1240" width="30" height="20" as="geometry" />
        </mxCell>
        <mxCell id="qIoHM2bMdAqv-RKR4ZxZ-57" value="&lt;font style=&quot;font-size: 12px&quot;&gt;No&lt;/font&gt;" style="text;html=1;strokeColor=none;fillColor=none;align=center;verticalAlign=middle;whiteSpace=wrap;rounded=0;fontSize=7;" vertex="1" parent="WIyWlLk6GJQsqaUBKTNV-1">
          <mxGeometry x="1030" y="1040" width="30" height="20" as="geometry" />
        </mxCell>
        <mxCell id="qIoHM2bMdAqv-RKR4ZxZ-58" value="Game Over" style="rounded=1;whiteSpace=wrap;html=1;fontSize=10;" vertex="1" parent="WIyWlLk6GJQsqaUBKTNV-1">
          <mxGeometry x="1250" y="1235" width="120" height="60" as="geometry" />
        </mxCell>
        <mxCell id="qIoHM2bMdAqv-RKR4ZxZ-60" value="&lt;font style=&quot;font-size: 12px&quot;&gt;No&lt;/font&gt;" style="text;html=1;strokeColor=none;fillColor=none;align=center;verticalAlign=middle;whiteSpace=wrap;rounded=0;fontSize=7;" vertex="1" parent="WIyWlLk6GJQsqaUBKTNV-1">
          <mxGeometry x="1180" y="1240" width="30" height="20" as="geometry" />
        </mxCell>
        <mxCell id="qIoHM2bMdAqv-RKR4ZxZ-63" style="edgeStyle=orthogonalEdgeStyle;rounded=0;orthogonalLoop=1;jettySize=auto;html=1;entryX=0.5;entryY=0;entryDx=0;entryDy=0;fontSize=10;" edge="1" parent="WIyWlLk6GJQsqaUBKTNV-1" source="qIoHM2bMdAqv-RKR4ZxZ-61" target="qIoHM2bMdAqv-RKR4ZxZ-41">
          <mxGeometry relative="1" as="geometry" />
        </mxCell>
        <mxCell id="qIoHM2bMdAqv-RKR4ZxZ-78" style="edgeStyle=orthogonalEdgeStyle;rounded=0;orthogonalLoop=1;jettySize=auto;html=1;exitX=0;exitY=0.5;exitDx=0;exitDy=0;entryX=0.5;entryY=1;entryDx=0;entryDy=0;fontSize=10;" edge="1" parent="WIyWlLk6GJQsqaUBKTNV-1" source="qIoHM2bMdAqv-RKR4ZxZ-61" target="qIoHM2bMdAqv-RKR4ZxZ-34">
          <mxGeometry relative="1" as="geometry" />
        </mxCell>
        <mxCell id="qIoHM2bMdAqv-RKR4ZxZ-61" value="&lt;font style=&quot;font-size: 9px&quot;&gt;Banca pide carta?&lt;/font&gt;" style="rhombus;whiteSpace=wrap;html=1;rounded=0;" vertex="1" parent="WIyWlLk6GJQsqaUBKTNV-1">
          <mxGeometry x="700" y="880" width="150" height="70" as="geometry" />
        </mxCell>
        <mxCell id="qIoHM2bMdAqv-RKR4ZxZ-64" value="&lt;font style=&quot;font-size: 12px&quot;&gt;No&lt;/font&gt;" style="text;html=1;strokeColor=none;fillColor=none;align=center;verticalAlign=middle;whiteSpace=wrap;rounded=0;fontSize=7;" vertex="1" parent="WIyWlLk6GJQsqaUBKTNV-1">
          <mxGeometry x="720" y="770" width="30" height="20" as="geometry" />
        </mxCell>
        <mxCell id="qIoHM2bMdAqv-RKR4ZxZ-65" value="&lt;font style=&quot;font-size: 12px&quot;&gt;No&lt;/font&gt;" style="text;html=1;strokeColor=none;fillColor=none;align=center;verticalAlign=middle;whiteSpace=wrap;rounded=0;fontSize=7;" vertex="1" parent="WIyWlLk6GJQsqaUBKTNV-1">
          <mxGeometry x="880" y="890" width="30" height="20" as="geometry" />
        </mxCell>
        <mxCell id="qIoHM2bMdAqv-RKR4ZxZ-79" value="&lt;font style=&quot;font-size: 12px&quot;&gt;Si&lt;/font&gt;" style="text;html=1;strokeColor=none;fillColor=none;align=center;verticalAlign=middle;whiteSpace=wrap;rounded=0;fontSize=7;" vertex="1" parent="WIyWlLk6GJQsqaUBKTNV-1">
          <mxGeometry x="635" y="890" width="30" height="20" as="geometry" />
        </mxCell>
        <mxCell id="qIoHM2bMdAqv-RKR4ZxZ-81" value="&lt;font style=&quot;font-size: 12px&quot;&gt;Si&lt;/font&gt;" style="text;html=1;strokeColor=none;fillColor=none;align=center;verticalAlign=middle;whiteSpace=wrap;rounded=0;fontSize=7;" vertex="1" parent="WIyWlLk6GJQsqaUBKTNV-1">
          <mxGeometry x="470" y="770" width="30" height="20" as="geometry" />
        </mxCell>
        <mxCell id="qIoHM2bMdAqv-RKR4ZxZ-83" value="&lt;font style=&quot;font-size: 12px&quot;&gt;Si&lt;/font&gt;" style="text;html=1;strokeColor=none;fillColor=none;align=center;verticalAlign=middle;whiteSpace=wrap;rounded=0;fontSize=7;" vertex="1" parent="WIyWlLk6GJQsqaUBKTNV-1">
          <mxGeometry x="290" y="660" width="30" height="20" as="geometry" />
        </mxCell>
        <mxCell id="qIoHM2bMdAqv-RKR4ZxZ-84" value="Jugador Pierde&lt;br&gt;- Activar botón &quot;Nueva Apuesta" style="rounded=1;whiteSpace=wrap;html=1;fontSize=10;" vertex="1" parent="WIyWlLk6GJQsqaUBKTNV-1">
          <mxGeometry x="997" y="1140" width="140" height="60" as="geometry" />
        </mxCell>
        <mxCell id="qIoHM2bMdAqv-RKR4ZxZ-85" value="&lt;font size=&quot;1&quot;&gt;Crédito suficiente?&lt;/font&gt;" style="rhombus;whiteSpace=wrap;html=1;rounded=0;" vertex="1" parent="WIyWlLk6GJQsqaUBKTNV-1">
          <mxGeometry x="992" y="1230" width="150" height="70" as="geometry" />
        </mxCell>
        <mxCell id="qIoHM2bMdAqv-RKR4ZxZ-86" value="&lt;font style=&quot;font-size: 12px&quot;&gt;Si&lt;/font&gt;" style="text;html=1;strokeColor=none;fillColor=none;align=center;verticalAlign=middle;whiteSpace=wrap;rounded=0;fontSize=7;" vertex="1" parent="WIyWlLk6GJQsqaUBKTNV-1">
          <mxGeometry x="940" y="1240" width="30" height="20" as="geometry" />
        </mxCell>
        <mxCell id="qIoHM2bMdAqv-RKR4ZxZ-87" value="Jugador Pierde&lt;br&gt;- Activar botón &quot;Nueva Apuesta" style="rounded=1;whiteSpace=wrap;html=1;fontSize=10;" vertex="1" parent="WIyWlLk6GJQsqaUBKTNV-1">
          <mxGeometry x="997" y="1140" width="140" height="60" as="geometry" />
        </mxCell>
        <mxCell id="qIoHM2bMdAqv-RKR4ZxZ-88" value="&lt;font size=&quot;1&quot;&gt;Crédito suficiente?&lt;/font&gt;" style="rhombus;whiteSpace=wrap;html=1;rounded=0;" vertex="1" parent="WIyWlLk6GJQsqaUBKTNV-1">
          <mxGeometry x="992" y="1230" width="150" height="70" as="geometry" />
        </mxCell>
        <mxCell id="qIoHM2bMdAqv-RKR4ZxZ-89" value="&lt;font style=&quot;font-size: 12px&quot;&gt;Si&lt;/font&gt;" style="text;html=1;strokeColor=none;fillColor=none;align=center;verticalAlign=middle;whiteSpace=wrap;rounded=0;fontSize=7;" vertex="1" parent="WIyWlLk6GJQsqaUBKTNV-1">
          <mxGeometry x="940" y="1240" width="30" height="20" as="geometry" />
        </mxCell>
        <mxCell id="qIoHM2bMdAqv-RKR4ZxZ-90" value="" style="edgeStyle=orthogonalEdgeStyle;rounded=0;orthogonalLoop=1;jettySize=auto;html=1;fontSize=10;entryX=0.5;entryY=0;entryDx=0;entryDy=0;" edge="1" parent="WIyWlLk6GJQsqaUBKTNV-1">
          <mxGeometry relative="1" as="geometry">
            <mxPoint x="1067.0285714285715" y="1200" as="sourcePoint" />
            <mxPoint x="1067" y="1229" as="targetPoint" />
          </mxGeometry>
        </mxCell>
        <mxCell id="qIoHM2bMdAqv-RKR4ZxZ-91" style="edgeStyle=orthogonalEdgeStyle;rounded=0;orthogonalLoop=1;jettySize=auto;html=1;entryX=-0.029;entryY=0.49;entryDx=0;entryDy=0;entryPerimeter=0;fontSize=10;" edge="1" target="qIoHM2bMdAqv-RKR4ZxZ-93" parent="WIyWlLk6GJQsqaUBKTNV-1">
          <mxGeometry relative="1" as="geometry">
            <mxPoint x="1142" y="1265" as="sourcePoint" />
          </mxGeometry>
        </mxCell>
        <mxCell id="qIoHM2bMdAqv-RKR4ZxZ-92" value="&lt;font style=&quot;font-size: 12px&quot;&gt;No&lt;/font&gt;" style="text;html=1;strokeColor=none;fillColor=none;align=center;verticalAlign=middle;whiteSpace=wrap;rounded=0;fontSize=7;" vertex="1" parent="WIyWlLk6GJQsqaUBKTNV-1">
          <mxGeometry x="1180" y="1240" width="30" height="20" as="geometry" />
        </mxCell>
        <mxCell id="qIoHM2bMdAqv-RKR4ZxZ-93" value="Game Over" style="rounded=1;whiteSpace=wrap;html=1;fontSize=10;" vertex="1" parent="WIyWlLk6GJQsqaUBKTNV-1">
          <mxGeometry x="1250" y="1235" width="120" height="60" as="geometry" />
        </mxCell>
        <mxCell id="qIoHM2bMdAqv-RKR4ZxZ-94" value="" style="edgeStyle=orthogonalEdgeStyle;rounded=0;orthogonalLoop=1;jettySize=auto;html=1;fontSize=10;" edge="1" parent="WIyWlLk6GJQsqaUBKTNV-1">
          <mxGeometry relative="1" as="geometry">
            <mxPoint x="992" y="1265" as="sourcePoint" />
            <mxPoint x="897" y="1265" as="targetPoint" />
          </mxGeometry>
        </mxCell>
        <mxCell id="qIoHM2bMdAqv-RKR4ZxZ-95" value="Jugador Pierde&lt;br&gt;- Activar botón &quot;Nueva Apuesta" style="rounded=1;whiteSpace=wrap;html=1;fontSize=10;" vertex="1" parent="WIyWlLk6GJQsqaUBKTNV-1">
          <mxGeometry x="997" y="1140" width="140" height="60" as="geometry" />
        </mxCell>
        <mxCell id="qIoHM2bMdAqv-RKR4ZxZ-96" value="&lt;font size=&quot;1&quot;&gt;Crédito suficiente?&lt;/font&gt;" style="rhombus;whiteSpace=wrap;html=1;rounded=0;" vertex="1" parent="WIyWlLk6GJQsqaUBKTNV-1">
          <mxGeometry x="992" y="1230" width="150" height="70" as="geometry" />
        </mxCell>
        <mxCell id="qIoHM2bMdAqv-RKR4ZxZ-97" value="&lt;font style=&quot;font-size: 12px&quot;&gt;Si&lt;/font&gt;" style="text;html=1;strokeColor=none;fillColor=none;align=center;verticalAlign=middle;whiteSpace=wrap;rounded=0;fontSize=7;" vertex="1" parent="WIyWlLk6GJQsqaUBKTNV-1">
          <mxGeometry x="940" y="1240" width="30" height="20" as="geometry" />
        </mxCell>
        <mxCell id="qIoHM2bMdAqv-RKR4ZxZ-98" value="" style="edgeStyle=orthogonalEdgeStyle;rounded=0;orthogonalLoop=1;jettySize=auto;html=1;fontSize=10;entryX=0.5;entryY=0;entryDx=0;entryDy=0;" edge="1" parent="WIyWlLk6GJQsqaUBKTNV-1">
          <mxGeometry relative="1" as="geometry">
            <mxPoint x="1067.0285714285715" y="1200" as="sourcePoint" />
            <mxPoint x="1067" y="1229" as="targetPoint" />
          </mxGeometry>
        </mxCell>
        <mxCell id="qIoHM2bMdAqv-RKR4ZxZ-99" style="edgeStyle=orthogonalEdgeStyle;rounded=0;orthogonalLoop=1;jettySize=auto;html=1;entryX=-0.029;entryY=0.49;entryDx=0;entryDy=0;entryPerimeter=0;fontSize=10;" edge="1" target="qIoHM2bMdAqv-RKR4ZxZ-101" parent="WIyWlLk6GJQsqaUBKTNV-1">
          <mxGeometry relative="1" as="geometry">
            <mxPoint x="1142" y="1265" as="sourcePoint" />
          </mxGeometry>
        </mxCell>
        <mxCell id="qIoHM2bMdAqv-RKR4ZxZ-100" value="&lt;font style=&quot;font-size: 12px&quot;&gt;No&lt;/font&gt;" style="text;html=1;strokeColor=none;fillColor=none;align=center;verticalAlign=middle;whiteSpace=wrap;rounded=0;fontSize=7;" vertex="1" parent="WIyWlLk6GJQsqaUBKTNV-1">
          <mxGeometry x="1180" y="1240" width="30" height="20" as="geometry" />
        </mxCell>
        <mxCell id="qIoHM2bMdAqv-RKR4ZxZ-101" value="Game Over" style="rounded=1;whiteSpace=wrap;html=1;fontSize=10;" vertex="1" parent="WIyWlLk6GJQsqaUBKTNV-1">
          <mxGeometry x="1250" y="1235" width="120" height="60" as="geometry" />
        </mxCell>
        <mxCell id="qIoHM2bMdAqv-RKR4ZxZ-102" value="" style="edgeStyle=orthogonalEdgeStyle;rounded=0;orthogonalLoop=1;jettySize=auto;html=1;fontSize=10;" edge="1" parent="WIyWlLk6GJQsqaUBKTNV-1">
          <mxGeometry relative="1" as="geometry">
            <mxPoint x="992" y="1265" as="sourcePoint" />
            <mxPoint x="897" y="1265" as="targetPoint" />
          </mxGeometry>
        </mxCell>
        <mxCell id="qIoHM2bMdAqv-RKR4ZxZ-103" value="Jugador Pierde&lt;br&gt;- Activar botón &quot;Nueva Apuesta" style="rounded=1;whiteSpace=wrap;html=1;fontSize=10;" vertex="1" parent="WIyWlLk6GJQsqaUBKTNV-1">
          <mxGeometry x="-83" y="670" width="140" height="60" as="geometry" />
        </mxCell>
        <mxCell id="qIoHM2bMdAqv-RKR4ZxZ-104" value="&lt;font size=&quot;1&quot;&gt;Crédito suficiente?&lt;/font&gt;" style="rhombus;whiteSpace=wrap;html=1;rounded=0;" vertex="1" parent="WIyWlLk6GJQsqaUBKTNV-1">
          <mxGeometry x="-88" y="760" width="150" height="70" as="geometry" />
        </mxCell>
        <mxCell id="qIoHM2bMdAqv-RKR4ZxZ-105" value="&lt;font style=&quot;font-size: 12px&quot;&gt;Si&lt;/font&gt;" style="text;html=1;strokeColor=none;fillColor=none;align=center;verticalAlign=middle;whiteSpace=wrap;rounded=0;fontSize=7;" vertex="1" parent="WIyWlLk6GJQsqaUBKTNV-1">
          <mxGeometry x="-150" y="770" width="30" height="20" as="geometry" />
        </mxCell>
        <mxCell id="qIoHM2bMdAqv-RKR4ZxZ-106" value="" style="edgeStyle=orthogonalEdgeStyle;rounded=0;orthogonalLoop=1;jettySize=auto;html=1;fontSize=10;entryX=0.5;entryY=0;entryDx=0;entryDy=0;" edge="1" parent="WIyWlLk6GJQsqaUBKTNV-1">
          <mxGeometry relative="1" as="geometry">
            <mxPoint x="-12.971428571428532" y="730" as="sourcePoint" />
            <mxPoint x="-13" y="759" as="targetPoint" />
          </mxGeometry>
        </mxCell>
        <mxCell id="qIoHM2bMdAqv-RKR4ZxZ-107" style="edgeStyle=orthogonalEdgeStyle;rounded=0;orthogonalLoop=1;jettySize=auto;html=1;entryX=-0.029;entryY=0.49;entryDx=0;entryDy=0;entryPerimeter=0;fontSize=10;" edge="1" parent="WIyWlLk6GJQsqaUBKTNV-1" target="qIoHM2bMdAqv-RKR4ZxZ-109">
          <mxGeometry relative="1" as="geometry">
            <mxPoint x="62" y="795" as="sourcePoint" />
          </mxGeometry>
        </mxCell>
        <mxCell id="qIoHM2bMdAqv-RKR4ZxZ-108" value="&lt;font style=&quot;font-size: 12px&quot;&gt;No&lt;/font&gt;" style="text;html=1;strokeColor=none;fillColor=none;align=center;verticalAlign=middle;whiteSpace=wrap;rounded=0;fontSize=7;" vertex="1" parent="WIyWlLk6GJQsqaUBKTNV-1">
          <mxGeometry x="100" y="770" width="30" height="20" as="geometry" />
        </mxCell>
        <mxCell id="qIoHM2bMdAqv-RKR4ZxZ-109" value="Game Over" style="rounded=1;whiteSpace=wrap;html=1;fontSize=10;" vertex="1" parent="WIyWlLk6GJQsqaUBKTNV-1">
          <mxGeometry x="170" y="765" width="120" height="60" as="geometry" />
        </mxCell>
        <mxCell id="qIoHM2bMdAqv-RKR4ZxZ-110" value="" style="edgeStyle=orthogonalEdgeStyle;rounded=0;orthogonalLoop=1;jettySize=auto;html=1;fontSize=10;entryX=1;entryY=0.5;entryDx=0;entryDy=0;" edge="1" parent="WIyWlLk6GJQsqaUBKTNV-1" target="qIoHM2bMdAqv-RKR4ZxZ-112">
          <mxGeometry relative="1" as="geometry">
            <mxPoint x="-88" y="795" as="sourcePoint" />
            <mxPoint x="-183" y="795" as="targetPoint" />
          </mxGeometry>
        </mxCell>
        <mxCell id="qIoHM2bMdAqv-RKR4ZxZ-112" value="Nueva partida" style="rounded=1;whiteSpace=wrap;html=1;fontSize=10;" vertex="1" parent="WIyWlLk6GJQsqaUBKTNV-1">
          <mxGeometry x="-310" y="765" width="120" height="60" as="geometry" />
        </mxCell>
        <mxCell id="qIoHM2bMdAqv-RKR4ZxZ-113" value="&lt;font style=&quot;font-size: 12px&quot;&gt;Si&lt;/font&gt;" style="text;html=1;strokeColor=none;fillColor=none;align=center;verticalAlign=middle;whiteSpace=wrap;rounded=0;fontSize=7;" vertex="1" parent="WIyWlLk6GJQsqaUBKTNV-1">
          <mxGeometry x="20" y="550" width="30" height="20" as="geometry" />
        </mxCell>
      </root>
    </mxGraphModel>
  </diagram>
</mxfile>
